<svg width="24" height="24" viewBox="0 0 24 24" fill="none" xmlns="http://www.w3.org/2000/svg">
<path d="M13.2 12L22.35 2.84998C22.6875 2.51248 22.6875 1.98748 22.35 1.64998C22.0125 1.31248 21.4875 1.31248 21.15 1.64998L12 10.8L2.85001 1.64998C2.51251 1.31248 1.98751 1.31248 1.65001 1.64998C1.31251 1.98748 1.31251 2.51248 1.65001 2.84998L10.8 12L1.65001 21.15C1.31251 21.4875 1.31251 22.0125 1.65001 22.35C1.80001 22.5 2.02501 22.6125 2.25001 22.6125C2.47501 22.6125 2.70001 22.5375 2.85001 22.35L12 13.2L21.15 22.35C21.3 22.5 21.525 22.6125 21.75 22.6125C21.975 22.6125 22.2 22.5375 22.35 22.35C22.6875 22.0125 22.6875 21.4875 22.35 21.15L13.2 12Z" fill="#33322F"/>
</svg>
