<svg width="40" height="40" viewBox="0 0 40 40" fill="none" xmlns="http://www.w3.org/2000/svg">
<path d="M35.4375 2.6875H4.5625C2.625 2.6875 1.0625 4.25 1.0625 6.1875V10C1.0625 11.8125 2.4375 13.3125 4.25 13.4375V33.5C4.25 35.625 5.9375 37.3125 8.0625 37.3125H31.875C34 37.3125 35.6875 35.625 35.6875 33.5V13.4375C37.4375 13.3125 38.875 11.8125 38.875 10V6.1875C38.9375 4.25 37.375 2.6875 35.4375 2.6875ZM31.875 34.5H8.125C7.5625 34.5 7.125 34.0625 7.125 33.5V13.4375H32.9375V33.5C32.9375 34.0625 32.4375 34.5 31.875 34.5ZM36.125 10C36.125 10.375 35.8125 10.6875 35.4375 10.6875H4.5625C4.1875 10.6875 3.875 10.375 3.875 10V6.1875C3.875 5.8125 4.1875 5.5 4.5625 5.5H35.4375C35.8125 5.5 36.125 5.8125 36.125 6.1875V10Z" fill="#7848B8"/>
<path d="M25.125 18.625H14.875C13.4375 18.625 12.1875 19.8125 12.1875 21.3125V25.1875C12.1875 26.625 13.375 27.875 14.875 27.875H25.125C26.5625 27.875 27.8125 26.6875 27.8125 25.1875V21.25C27.75 19.8125 26.5625 18.625 25.125 18.625ZM24.9375 24.9375H15.0625V21.375H25V24.9375H24.9375Z" fill="#7848B8"/>
</svg>
