<svg width="40" height="40" viewBox="0 0 40 40" fill="none" xmlns="http://www.w3.org/2000/svg">
<path d="M13.625 23C17.9375 23 21.375 19.5 21.375 15.25C21.375 11 17.875 7.5 13.625 7.5C9.375 7.5 5.875 10.9375 5.875 15.25C5.875 19.5625 9.375 23 13.625 23ZM13.625 10.25C16.375 10.25 18.5625 12.5 18.5625 15.1875C18.5625 17.875 16.3125 20.125 13.625 20.125C10.875 20.125 8.6875 17.875 8.6875 15.1875C8.6875 12.5 10.875 10.25 13.625 10.25Z" fill="#7848B8"/>
<path d="M13.625 24.9375C9.125 24.9375 4.8125 26.75 1.5 30.125C0.9375 30.6875 0.9375 31.5625 1.5 32.125C1.75 32.375 2.125 32.5625 2.5 32.5625C2.875 32.5625 3.25 32.4375 3.5 32.125C6.25 29.3125 9.875 27.75 13.625 27.75C17.3125 27.75 20.9375 29.3125 23.75 32.125C24.3125 32.6875 25.1875 32.6875 25.75 32.125C26.3125 31.5625 26.3125 30.6875 25.75 30.125C22.4375 26.8125 18.125 24.9375 13.625 24.9375Z" fill="#7848B8"/>
<path d="M29.5625 23C32.0625 23 34.125 20.9375 34.125 18.4375C34.125 15.9375 32.0625 13.875 29.5625 13.875C27.0625 13.875 25 15.9375 25 18.4375C24.9375 20.9375 27 23 29.5625 23ZM29.5625 16.625C30.5625 16.625 31.3125 17.4375 31.3125 18.375C31.3125 19.375 30.5 20.125 29.5625 20.125C28.625 20.125 27.8125 19.3125 27.8125 18.375C27.75 17.4375 28.5625 16.625 29.5625 16.625Z" fill="#7848B8"/>
<path d="M38.4375 28.5C35.125 25.4375 30.5625 24.1875 26 25.375C25.25 25.5625 24.8125 26.3125 25 27.0625C25.1875 27.8125 26 28.25 26.6875 28.0625C30.3125 27.125 33.9375 28.0625 36.5 30.5C36.75 30.75 37.125 30.875 37.4375 30.875C37.8125 30.875 38.1875 30.75 38.4375 30.4375C39.0625 29.9375 39 29.0625 38.4375 28.5Z" fill="#7848B8"/>
</svg>
