<svg width="22" height="22" viewBox="0 0 22 22" fill="none" xmlns="http://www.w3.org/2000/svg">
<path d="M3.66666 3.66676V8.2501H4.20016M4.20016 8.2501C4.80868 6.74505 5.89936 5.48443 7.30127 4.6658C8.70317 3.84718 10.3371 3.51681 11.9469 3.72647C13.5567 3.93614 15.0515 4.67399 16.1969 5.82439C17.3424 6.97479 18.0738 8.47272 18.2765 10.0834M4.20016 8.2501H8.24999M18.3333 18.3334V13.7501H17.8007M17.8007 13.7501C17.1913 15.2543 16.1004 16.5139 14.6986 17.3318C13.2968 18.1497 11.6634 18.4797 10.0541 18.2701C8.44475 18.0605 6.95034 17.3231 5.80481 16.1735C4.65929 15.0239 3.92732 13.5268 3.72349 11.9168M17.8007 13.7501H13.75" stroke="#FFFCCC" stroke-width="2" stroke-linecap="round" stroke-linejoin="round"/>
</svg>
