<svg width="40" height="40" viewBox="0 0 40 40" fill="none" xmlns="http://www.w3.org/2000/svg">
<path d="M36.3562 6.875H16.825C16.0244 6.875 15.2565 7.19305 14.6904 7.75917C14.1243 8.3253 13.8062 9.09313 13.8062 9.89375V10.1687H5.36875C5.06192 10.1702 4.76153 10.2569 4.50108 10.4191C4.24064 10.5814 4.03038 10.8128 3.89375 11.0875L0.8 17.4C0.687305 17.6252 0.627455 17.8732 0.625 18.125V27.9062C0.625 28.2378 0.756696 28.5557 0.991117 28.7901C1.22554 29.0245 1.54348 29.1562 1.875 29.1562H3.56875C3.75921 30.2664 4.33601 31.2736 5.19722 31.9996C6.05843 32.7257 7.14858 33.1239 8.275 33.1239C9.40142 33.1239 10.4916 32.7257 11.3528 31.9996C12.214 31.2736 12.7908 30.2664 12.9813 29.1562H26.1063C26.2967 30.2664 26.8735 31.2736 27.7347 31.9996C28.5959 32.7257 29.6861 33.1239 30.8125 33.1239C31.9389 33.1239 33.0291 32.7257 33.8903 31.9996C34.7515 31.2736 35.3283 30.2664 35.5188 29.1562H37.6875C38.1297 29.1563 38.5542 28.9828 38.8698 28.6731C39.1854 28.3633 39.3668 27.9421 39.375 27.5V9.90625C39.3766 9.50877 39.2998 9.11488 39.1488 8.74719C38.9978 8.37949 38.7757 8.04523 38.4953 7.76359C38.2148 7.48194 37.8814 7.25847 37.5144 7.10598C37.1473 6.95349 36.7537 6.875 36.3562 6.875ZM5.90625 12.6812H13.8062V16.775H3.89375L5.90625 12.6812ZM8.275 30.625C7.82205 30.6262 7.37892 30.493 7.00179 30.2421C6.62465 29.9912 6.33049 29.634 6.15658 29.2158C5.98267 28.7975 5.93684 28.3371 6.02491 27.8928C6.11297 27.4485 6.33096 27.0403 6.65125 26.72C6.97154 26.3997 7.37971 26.1817 7.82402 26.0937C8.26833 26.0056 8.72879 26.0514 9.14703 26.2253C9.56527 26.3992 9.92246 26.6934 10.1733 27.0705C10.4242 27.4477 10.5575 27.8908 10.5562 28.3437C10.5546 28.9483 10.3137 29.5275 9.88627 29.955C9.45881 30.3825 8.87952 30.6233 8.275 30.625ZM8.275 23.5562C7.29935 23.5583 6.34768 23.8588 5.54777 24.4174C4.74785 24.9761 4.13797 25.766 3.8 26.6812H3.125V19.275H13.8062V26.6562H12.75C12.41 25.7433 11.7992 24.9561 10.9995 24.3998C10.1997 23.8436 9.24917 23.5449 8.275 23.5437V23.5562ZM30.8063 30.625C30.3533 30.6262 29.9102 30.493 29.533 30.2421C29.1559 29.9912 28.8617 29.634 28.6878 29.2158C28.5139 28.7975 28.4681 28.3371 28.5562 27.8928C28.6442 27.4485 28.8622 27.0403 29.1825 26.72C29.5028 26.3997 29.911 26.1817 30.3553 26.0937C30.7996 26.0056 31.26 26.0514 31.6783 26.2253C32.0965 26.3992 32.4537 26.6934 32.7046 27.0705C32.9555 27.4477 33.0887 27.8908 33.0875 28.3437C33.0858 28.9483 32.845 29.5275 32.4175 29.955C31.9901 30.3825 31.4108 30.6233 30.8063 30.625ZM36.875 26.6562H35.2812C34.9426 25.7414 34.332 24.9522 33.5314 24.3948C32.7307 23.8374 31.7786 23.5387 30.8031 23.5387C29.8276 23.5387 28.8755 23.8374 28.0749 24.3948C27.2743 24.9522 26.6636 25.7414 26.325 26.6562H16.325V9.90625C16.3266 9.76917 16.3818 9.63817 16.4787 9.54123C16.5757 9.4443 16.7067 9.38912 16.8438 9.3875H36.3562C36.4933 9.38912 36.6243 9.4443 36.7213 9.54123C36.8182 9.63817 36.8734 9.76917 36.875 9.90625V26.6562Z" fill="#7848B8"/>
</svg>
