<svg width="28" height="28" viewBox="0 0 28 28" fill="none" xmlns="http://www.w3.org/2000/svg">
<path d="M25.6375 5.03115L21.3937 1.1374L21.3062 1.09365C21 0.874902 20.65 0.743652 20.3437 0.743652H5.20623C3.36873 0.743652 1.88123 2.23115 1.88123 4.06865V23.8437C1.88123 25.6812 3.36873 27.1686 5.20623 27.1686H22.7937C24.6312 27.1686 26.1187 25.6812 26.1187 23.8437V6.16865C26.1187 5.7749 25.9875 5.38115 25.6375 5.03115ZM17.4562 2.75615V5.2499H8.31248V2.75615H17.4562ZM9.40623 25.2874V17.1937H18.5937V25.2437H9.40623V25.2874ZM24.15 23.8874C24.15 24.6311 23.5375 25.2437 22.7937 25.2437H20.5625V16.7999C20.5625 15.9687 19.8625 15.2687 19.0312 15.2687H8.96873C8.13748 15.2687 7.43748 15.9687 7.43748 16.7999V25.2874H5.20623C4.46248 25.2874 3.84998 24.6749 3.84998 23.9312V4.1124C3.84998 3.36865 4.46248 2.75615 5.20623 2.75615H6.34373V5.6874C6.34373 6.51865 7.04373 7.21865 7.87498 7.21865H17.8937C18.725 7.21865 19.425 6.51865 19.425 5.6874V2.75615H20.2125L24.15 6.3874V23.8874Z" fill="#33322F"/>
<path d="M15.7937 18.5938H12.2062C11.6812 18.5938 11.2 19.0312 11.2 19.6C11.2 20.1687 11.6375 20.6062 12.2062 20.6062H15.7937C16.3187 20.6062 16.8 20.1687 16.8 19.6C16.8 19.0312 16.3187 18.5938 15.7937 18.5938Z" fill="#33322F"/>
<path d="M15.7937 21.9187H12.2062C11.6812 21.9187 11.2 22.3562 11.2 22.925C11.2 23.4937 11.6375 23.9312 12.2062 23.9312H15.7937C16.3187 23.9312 16.8 23.4937 16.8 22.925C16.8 22.3562 16.3187 21.9187 15.7937 21.9187Z" fill="#33322F"/>
</svg>
