<svg width="24" height="24" viewBox="0 0 24 24" fill="none" xmlns="http://www.w3.org/2000/svg">
<path d="M12 19.7624C4.57502 19.7624 0.900024 12.6749 0.750024 12.3749C0.637524 12.1499 0.637524 11.8499 0.750024 11.6249C0.900024 11.3249 4.57502 4.2749 12 4.2749C19.425 4.2749 23.1 11.3249 23.25 11.6249C23.3625 11.8499 23.3625 12.1499 23.25 12.3749C23.1 12.6749 19.425 19.7624 12 19.7624ZM2.47502 11.9999C3.30002 13.3874 6.52502 18.0749 12 18.0749C17.475 18.0749 20.7 13.3874 21.525 11.9999C20.7 10.6124 17.475 5.9249 12 5.9249C6.52502 5.9249 3.30002 10.6124 2.47502 11.9999Z" fill="#7848B8"/>
<path d="M12 15.1875C10.2375 15.1875 8.8125 13.7625 8.8125 12C8.8125 10.2375 10.2375 8.8125 12 8.8125C13.7625 8.8125 15.1875 10.2375 15.1875 12C15.1875 13.7625 13.7625 15.1875 12 15.1875ZM12 10.5C11.175 10.5 10.5 11.175 10.5 12C10.5 12.825 11.175 13.5 12 13.5C12.825 13.5 13.5 12.825 13.5 12C13.5 11.175 12.825 10.5 12 10.5Z" fill="#7848B8"/>
</svg>
