<svg width="40" height="40" viewBox="0 0 40 40" fill="none" xmlns="http://www.w3.org/2000/svg">
<path d="M22.375 18.625H17.9375C16.625 18.625 15.5625 17.625 15.5625 16.375C15.5625 15.125 16.625 14.125 17.9375 14.125H24.375C25.125 14.125 25.75 13.5 25.75 12.75C25.75 12 25.125 11.375 24.375 11.375H21.375V9.875C21.375 9.125 20.75 8.5 20 8.5C19.25 8.5 18.625 9.125 18.625 9.875V11.375H17.9375C15.0625 11.375 12.75 13.625 12.75 16.4375C12.75 19.25 15.0625 21.5 17.9375 21.5H22.375C23.6875 21.5 24.75 22.5 24.75 23.75C24.75 25 23.6875 26 22.375 26H15.625C14.875 26 14.25 26.625 14.25 27.375C14.25 28.125 14.875 28.75 15.625 28.75H18.625V30.25C18.625 31 19.25 31.625 20 31.625C20.75 31.625 21.375 31 21.375 30.25V28.75H22.375C25.25 28.75 27.5625 26.5 27.5625 23.6875C27.625 20.875 25.25 18.625 22.375 18.625Z" fill="#7848B8"/>
<path d="M20 1.125C9.5625 1.125 1.125 9.5625 1.125 20C1.125 30.4375 9.5625 38.875 20 38.875C30.4375 38.875 38.875 30.4375 38.875 20C38.875 9.5625 30.4375 1.125 20 1.125ZM20 36.125C11.125 36.125 3.875 28.875 3.875 20C3.875 11.125 11.125 3.875 20 3.875C28.875 3.875 36.125 11.125 36.125 20C36.125 28.875 28.875 36.125 20 36.125Z" fill="#7848B8"/>
</svg>
