<svg width="28" height="28" viewBox="0 0 28 28" fill="none" xmlns="http://www.w3.org/2000/svg">
<path d="M24.0625 18.725C23.625 18.725 23.2312 18.8125 22.8375 18.9438L22.05 18.025C23.6687 17.0625 24.9375 15.5313 25.55 13.65L26.3375 11.2438C26.4687 10.85 26.775 9.93127 26.25 9.14377C25.8562 8.61877 25.2437 8.35628 24.325 8.35628H7.96248L6.64998 4.37502C6.38748 3.50002 5.59998 2.93127 4.68123 2.93127H1.74998C1.22498 2.93127 0.787476 3.36877 0.787476 3.89377C0.787476 4.41877 1.22498 4.85627 1.74998 4.85627H4.68123C4.72498 4.85627 4.76873 4.90002 4.76873 4.94377L6.21248 9.49378V23.275C6.21248 23.8 6.51873 24.2813 7.04373 24.4563C7.17498 24.5 7.34998 24.5438 7.48123 24.5438C7.78748 24.5438 8.09373 24.4125 8.35623 24.1938L15.1812 19.075H18.1125C18.8125 19.075 19.5125 18.9875 20.1687 18.8125L21.35 20.2125C21.0437 20.6938 20.8687 21.2625 20.8687 21.875C20.8687 23.625 22.3125 25.0688 24.0625 25.0688C25.8125 25.0688 27.2562 23.625 27.2562 21.875C27.2125 20.125 25.8125 18.725 24.0625 18.725ZM8.22498 21.9188V19.1188H11.9437L8.22498 21.9188ZM8.22498 17.15V10.3688H24.4125C24.5 10.3688 24.5875 10.3688 24.6312 10.3688C24.6312 10.4125 24.5875 10.5 24.5437 10.6313L23.7562 13.0375C22.925 15.4875 20.6937 17.15 18.1562 17.15H8.22498ZM24.0625 23.1C23.4062 23.1 22.8375 22.575 22.8375 21.875C22.8375 21.175 23.3625 20.65 24.0625 20.65C24.7625 20.65 25.2875 21.175 25.2875 21.875C25.2875 22.575 24.7187 23.1 24.0625 23.1Z" fill="#33322F"/>
</svg>
